#N canvas 726 204 714 618 12;
#X obj 14 25 key;
#X floatatom 14 50 5 0 0 0 - - -;
#X obj 163 48 sel 32;
#X obj 14 74 s key;
#X obj 163 25 r key;
#X floatatom 202 72 5 0 0 0 - - -;
#X obj 603 529 catch~ bus;
#X obj 603 558 dac~;
#X obj 89 133 tgl 20 0 empty empty empty 17 7 0 10 -262144 -258113
-1 0 1;
#X obj 202 98 pack f f;
#X obj 202 124 expr if ($f2 == 1 \, 0 \, $f1);
#X obj 202 147 s drum-trig;
#X text 244 73 Key note in;
#X obj 192 204 r drum-trig;
#N canvas 0 25 599 462 (subpatch) 1;
#X obj 37 37 inlet;
#X text 86 36 note in;
#X obj 37 71 sel 49 50 51 52 53 54 55 56;
#X obj 37 107 sample 707/Kick.wav;
#X obj 37 128 throw~ bus;
#X obj 120 152 throw~ bus;
#X obj 120 131 sample 707/Snare.wav;
#X obj 58 199 throw~ bus;
#X obj 141 223 throw~ bus;
#X obj 58 178 sample 707/CHat.wav;
#X obj 141 202 sample 707/OHat.wav;
#X obj 79 268 throw~ bus;
#X obj 162 292 throw~ bus;
#X obj 100 339 throw~ bus;
#X obj 79 247 sample 707/Rim.wav;
#X obj 162 271 sample 707/Tom1.wav;
#X obj 100 318 sample 707/Tom2.wav;
#X obj 183 342 sample 707/Clap.wav;
#X obj 183 364 throw~ bus;
#X obj 308 41 inlet;
#X text 363 42 sequence in;
#X obj 308 70 unpack f f f f f f f f;
#X obj 308 98 sel 1;
#X obj 308 122 bng 15 250 50 0 empty empty empty 17 7 0 10 -262144
-1 -1;
#X obj 331 122 sel 1;
#X obj 331 146 bng 15 250 50 0 empty empty empty 17 7 0 10 -262144
-1 -1;
#X obj 356 149 sel 1;
#X obj 356 173 bng 15 250 50 0 empty empty empty 17 7 0 10 -262144
-1 -1;
#X obj 379 173 sel 1;
#X obj 379 197 bng 15 250 50 0 empty empty empty 17 7 0 10 -262144
-1 -1;
#X obj 402 197 sel 1;
#X obj 402 221 bng 15 250 50 0 empty empty empty 17 7 0 10 -262144
-1 -1;
#X obj 425 221 sel 1;
#X obj 425 245 bng 15 250 50 0 empty empty empty 17 7 0 10 -262144
-1 -1;
#X obj 450 248 sel 1;
#X obj 450 272 bng 15 250 50 0 empty empty empty 17 7 0 10 -262144
-1 -1;
#X obj 473 272 sel 1;
#X obj 473 296 bng 15 250 50 0 empty empty empty 17 7 0 10 -262144
-1 -1;
#X connect 0 0 2 0;
#X connect 2 0 3 0;
#X connect 2 1 6 0;
#X connect 2 2 9 0;
#X connect 2 3 10 0;
#X connect 2 4 14 0;
#X connect 2 5 15 0;
#X connect 2 6 16 0;
#X connect 2 7 17 0;
#X connect 3 0 4 0;
#X connect 6 0 5 0;
#X connect 9 0 7 0;
#X connect 10 0 8 0;
#X connect 14 0 11 0;
#X connect 15 0 12 0;
#X connect 16 0 13 0;
#X connect 17 0 18 0;
#X connect 19 0 21 0;
#X connect 21 0 22 0;
#X connect 21 1 24 0;
#X connect 21 2 26 0;
#X connect 21 3 28 0;
#X connect 21 4 30 0;
#X connect 21 5 32 0;
#X connect 21 6 34 0;
#X connect 21 7 36 0;
#X connect 22 0 23 0;
#X connect 23 0 3 0;
#X connect 24 0 25 0;
#X connect 25 0 6 0;
#X connect 26 0 27 0;
#X connect 27 0 9 0;
#X connect 28 0 29 0;
#X connect 29 0 10 0;
#X connect 30 0 31 0;
#X connect 31 0 14 0;
#X connect 32 0 33 0;
#X connect 33 0 15 0;
#X connect 34 0 35 0;
#X connect 35 0 16 0;
#X connect 36 0 37 0;
#X connect 37 0 17 0;
#X restore 197 335 pd 707;
#X obj 240 269 == 1;
#X obj 284 204 r patch;
#X obj 317 269 == 2;
#N canvas 94 101 450 462 (subpatch) 0;
#X obj 37 37 inlet;
#X text 86 36 note in;
#X obj 37 71 sel 49 50 51 52 53 54 55 56;
#X obj 37 128 throw~ bus;
#X obj 120 152 throw~ bus;
#X obj 58 199 throw~ bus;
#X obj 141 223 throw~ bus;
#X obj 79 268 throw~ bus;
#X obj 162 292 throw~ bus;
#X obj 100 339 throw~ bus;
#X obj 37 107 sample 505/Kick.wav;
#X obj 120 131 sample 505/Snare.wav;
#X obj 58 178 sample 505/CHat.wav;
#X obj 141 202 sample 505/OHat.wav;
#X obj 79 247 sample 505/LowTom.wav;
#X obj 162 271 sample 505/LowConga.wav;
#X obj 100 318 sample 505/HiConga.wav;
#X obj 183 342 sample 505/HiCowbell.wav;
#X obj 183 365 throw~ bus;
#X obj 308 41 inlet;
#X text 363 42 sequence in;
#X obj 308 70 unpack f f f f f f f f;
#X obj 308 98 sel 1;
#X obj 308 122 bng 15 250 50 0 empty empty empty 17 7 0 10 -262144
-1 -1;
#X obj 331 122 sel 1;
#X obj 331 146 bng 15 250 50 0 empty empty empty 17 7 0 10 -262144
-1 -1;
#X obj 356 149 sel 1;
#X obj 356 173 bng 15 250 50 0 empty empty empty 17 7 0 10 -262144
-1 -1;
#X obj 379 173 sel 1;
#X obj 379 197 bng 15 250 50 0 empty empty empty 17 7 0 10 -262144
-1 -1;
#X obj 402 197 sel 1;
#X obj 402 221 bng 15 250 50 0 empty empty empty 17 7 0 10 -262144
-1 -1;
#X obj 425 221 sel 1;
#X obj 425 245 bng 15 250 50 0 empty empty empty 17 7 0 10 -262144
-1 -1;
#X obj 450 248 sel 1;
#X obj 450 272 bng 15 250 50 0 empty empty empty 17 7 0 10 -262144
-1 -1;
#X obj 473 272 sel 1;
#X obj 473 296 bng 15 250 50 0 empty empty empty 17 7 0 10 -262144
-1 -1;
#X connect 0 0 2 0;
#X connect 2 0 10 0;
#X connect 2 1 11 0;
#X connect 2 2 12 0;
#X connect 2 3 13 0;
#X connect 2 4 14 0;
#X connect 2 5 15 0;
#X connect 2 6 16 0;
#X connect 2 7 17 0;
#X connect 10 0 3 0;
#X connect 11 0 4 0;
#X connect 12 0 5 0;
#X connect 13 0 6 0;
#X connect 14 0 7 0;
#X connect 15 0 8 0;
#X connect 16 0 9 0;
#X connect 17 0 18 0;
#X connect 19 0 21 0;
#X connect 21 0 22 0;
#X connect 21 1 24 0;
#X connect 21 2 26 0;
#X connect 21 3 28 0;
#X connect 21 4 30 0;
#X connect 21 5 32 0;
#X connect 21 6 34 0;
#X connect 21 7 36 0;
#X connect 22 0 23 0;
#X connect 23 0 10 0;
#X connect 24 0 25 0;
#X connect 25 0 11 0;
#X connect 26 0 27 0;
#X connect 27 0 12 0;
#X connect 28 0 29 0;
#X connect 29 0 13 0;
#X connect 30 0 31 0;
#X connect 31 0 14 0;
#X connect 32 0 33 0;
#X connect 33 0 15 0;
#X connect 34 0 35 0;
#X connect 35 0 16 0;
#X connect 36 0 37 0;
#X connect 37 0 17 0;
#X restore 274 335 pd 505;
#N canvas 52 52 446 300 menu 0;
#X obj 157 358 spigot;
#X obj 98 226 sel 49 50 51 52 53 54 55 56;
#X msg 109 277 1;
#X msg 147 277 2;
#X obj 98 199 r key;
#X obj 157 387 s patch;
#X obj 232 326 inlet;
#X obj 25 199 loadbang;
#X msg 185 277 3;
#X text 166 92 Potential Menu Items;
#X text 166 108 1 Patch;
#X text 166 122 2 Pattern;
#X text 166 150 4 Record;
#X text 166 136 3 Track Mute;
#X connect 0 0 5 0;
#X connect 1 0 2 0;
#X connect 1 1 3 0;
#X connect 1 2 8 0;
#X connect 2 0 0 0;
#X connect 3 0 0 0;
#X connect 4 0 1 0;
#X connect 6 0 0 1;
#X connect 7 0 2 0;
#X connect 8 0 0 0;
#X restore 51 244 pd menu;
#X text 20 266 Main and sub-menu;
#X text 19 281 for controlling;
#X text 20 296 spiemachine features;
#X text 18 143 (Spacebar);
#N canvas 593 329 745 462 (subpatch) 0;
#X obj 37 37 inlet;
#X text 86 36 note in;
#X obj 37 71 sel 49 50 51 52 53 54 55 56;
#X obj 37 128 throw~ bus;
#X obj 120 152 throw~ bus;
#X obj 58 199 throw~ bus;
#X obj 141 223 throw~ bus;
#X obj 79 268 throw~ bus;
#X obj 162 292 throw~ bus;
#X obj 100 339 throw~ bus;
#X obj 283 364 throw~ bus;
#N canvas 144 551 450 300 808Kick 0;
#X obj 216 101 line~;
#X obj 216 124 sqrt~;
#X obj 216 147 *~ 20;
#X obj 216 170 -~ 0.25;
#X obj 216 200 cos~;
#X msg 216 77 0 \, 1 220;
#X obj 216 41 inlet;
#X obj 216 231 outlet~;
#X obj 261 200 *~ 0.5;
#X connect 0 0 1 0;
#X connect 1 0 2 0;
#X connect 2 0 3 0;
#X connect 3 0 4 0;
#X connect 4 0 8 0;
#X connect 5 0 0 0;
#X connect 6 0 5 0;
#X connect 8 0 7 0;
#X restore 37 107 pd 808Kick;
#N canvas 860 25 450 300 808Snare 0;
#X obj 60 64 t b b;
#X msg 60 87 1 \, 0 100;
#X obj 60 111 line~;
#X obj 60 134 pow~ 4;
#X obj 60 157 *~;
#X obj 60 180 +~;
#X obj 116 135 osc~ 200;
#X msg 200 87 1 \, 0 100;
#X obj 200 111 line~;
#X obj 200 134 pow~ 4;
#X obj 200 157 *~;
#X obj 276 94 noise~;
#X obj 276 117 hip~ 3000;
#X obj 276 140 bp~ 5000 2;
#X obj 60 30 inlet;
#X obj 60 210 outlet~;
#X connect 0 0 1 0;
#X connect 0 1 7 0;
#X connect 1 0 2 0;
#X connect 2 0 3 0;
#X connect 3 0 4 0;
#X connect 4 0 5 0;
#X connect 5 0 15 0;
#X connect 6 0 4 1;
#X connect 7 0 8 0;
#X connect 8 0 9 0;
#X connect 9 0 10 0;
#X connect 10 0 5 1;
#X connect 11 0 12 0;
#X connect 12 0 13 0;
#X connect 13 0 10 1;
#X connect 14 0 0 0;
#X restore 120 131 pd 808Snare;
#N canvas 0 25 450 300 808CHat 0;
#X obj 91 320 line~;
#X obj 91 343 pow~ 4;
#X obj 91 366 *~;
#X obj 164 303 hip~ 8000;
#X obj 164 326 hip~ 8000;
#X obj 164 349 hip~ 8000;
#X obj 164 175 phasor~ 350;
#X obj 164 198 *~ 2;
#X obj 164 221 -~ 1;
#X obj 164 244 +~;
#X obj 252 198 *~ 2;
#X obj 252 221 -~ 1;
#X obj 251 175 phasor~ 800;
#X obj 91 127 inlet;
#X obj 89 428 outlet~;
#X obj 252 249 noise~;
#X obj 252 272 /~ 5;
#X msg 91 297 1 \, 0 100;
#X obj 91 389 *~ 8;
#X connect 0 0 1 0;
#X connect 1 0 2 0;
#X connect 2 0 18 0;
#X connect 3 0 4 0;
#X connect 4 0 5 0;
#X connect 5 0 2 1;
#X connect 6 0 7 0;
#X connect 7 0 8 0;
#X connect 8 0 9 0;
#X connect 9 0 3 0;
#X connect 10 0 11 0;
#X connect 11 0 9 1;
#X connect 12 0 10 0;
#X connect 13 0 17 0;
#X connect 15 0 16 0;
#X connect 16 0 3 0;
#X connect 17 0 0 0;
#X connect 18 0 14 0;
#X restore 58 178 pd 808CHat;
#N canvas 0 25 450 300 808OHat 0;
#X obj 91 320 line~;
#X obj 91 343 pow~ 4;
#X obj 91 366 *~;
#X obj 164 303 hip~ 8000;
#X obj 164 326 hip~ 8000;
#X obj 164 349 hip~ 8000;
#X obj 91 389 *~ 4;
#X obj 164 175 phasor~ 350;
#X obj 164 198 *~ 2;
#X obj 164 221 -~ 1;
#X obj 164 244 +~;
#X obj 252 198 *~ 2;
#X obj 252 221 -~ 1;
#X obj 251 175 phasor~ 800;
#X obj 91 127 inlet;
#X obj 89 428 outlet~;
#X obj 252 249 noise~;
#X obj 252 272 /~ 2;
#X msg 91 297 1 \, 0 450;
#X connect 0 0 1 0;
#X connect 1 0 2 0;
#X connect 2 0 6 0;
#X connect 3 0 4 0;
#X connect 4 0 5 0;
#X connect 5 0 2 1;
#X connect 6 0 15 0;
#X connect 7 0 8 0;
#X connect 8 0 9 0;
#X connect 9 0 10 0;
#X connect 10 0 3 0;
#X connect 11 0 12 0;
#X connect 12 0 10 1;
#X connect 13 0 11 0;
#X connect 14 0 18 0;
#X connect 16 0 17 0;
#X connect 17 0 3 0;
#X connect 18 0 0 0;
#X restore 141 202 pd 808OHat;
#N canvas 0 25 450 300 808LowTom 0;
#X obj 141 113 line~;
#X obj 189 180 +~;
#X obj 239 137 sqrt~;
#X obj 189 204 -~ 0.25;
#X obj 189 228 cos~;
#X obj 141 295 *~;
#X obj 141 157 *~ -1;
#X obj 141 181 +~ 1;
#X obj 189 252 *~ 2;
#X obj 189 276 expr~ tanh($v1);
#X obj 141 205 *~;
#X obj 239 161 *~ 30;
#X obj 141 343 outlet~;
#X obj 141 319 *~ 0.5;
#X obj 140 63 inlet;
#X msg 300 87 1 \, 0 100;
#X obj 300 111 line~;
#X obj 300 134 pow~ 4;
#X obj 300 157 *~;
#X obj 376 94 noise~;
#X obj 376 140 bp~ 5000 2;
#X obj 240 311 +~;
#X msg 140 89 0 \, 1 400;
#X obj 189 156 *~ 33;
#X obj 311 223 *~ 0.1;
#X obj 376 117 hip~ 3500;
#X connect 0 0 2 0;
#X connect 0 0 6 0;
#X connect 0 0 23 0;
#X connect 1 0 3 0;
#X connect 2 0 11 0;
#X connect 3 0 4 0;
#X connect 4 0 8 0;
#X connect 5 0 21 0;
#X connect 6 0 7 0;
#X connect 7 0 10 0;
#X connect 7 0 10 1;
#X connect 8 0 9 0;
#X connect 9 0 5 1;
#X connect 10 0 5 0;
#X connect 11 0 1 1;
#X connect 13 0 12 0;
#X connect 14 0 22 0;
#X connect 14 0 15 0;
#X connect 15 0 16 0;
#X connect 16 0 17 0;
#X connect 17 0 18 0;
#X connect 18 0 24 0;
#X connect 19 0 25 0;
#X connect 20 0 18 1;
#X connect 21 0 13 0;
#X connect 22 0 0 0;
#X connect 23 0 1 0;
#X connect 24 0 21 1;
#X connect 25 0 20 0;
#X restore 79 247 pd 808LowTom;
#N canvas 0 25 450 300 808HighTom 0;
#X obj 141 113 line~;
#X obj 189 180 +~;
#X obj 239 137 sqrt~;
#X obj 189 204 -~ 0.25;
#X obj 189 228 cos~;
#X obj 141 295 *~;
#X obj 141 157 *~ -1;
#X obj 141 181 +~ 1;
#X obj 189 252 *~ 2;
#X obj 189 276 expr~ tanh($v1);
#X obj 141 205 *~;
#X obj 239 161 *~ 30;
#X obj 141 343 outlet~;
#X obj 141 319 *~ 0.5;
#X obj 140 63 inlet;
#X msg 300 87 1 \, 0 100;
#X obj 300 111 line~;
#X obj 300 134 pow~ 4;
#X obj 300 157 *~;
#X obj 376 94 noise~;
#X obj 376 140 bp~ 5000 2;
#X obj 240 311 +~;
#X obj 311 223 *~ 0.1;
#X obj 376 117 hip~ 3500;
#X obj 189 156 *~ 69;
#X msg 140 89 0 \, 1 386;
#X connect 0 0 2 0;
#X connect 0 0 6 0;
#X connect 0 0 24 0;
#X connect 1 0 3 0;
#X connect 2 0 11 0;
#X connect 3 0 4 0;
#X connect 4 0 8 0;
#X connect 5 0 21 0;
#X connect 6 0 7 0;
#X connect 7 0 10 0;
#X connect 7 0 10 1;
#X connect 8 0 9 0;
#X connect 9 0 5 1;
#X connect 10 0 5 0;
#X connect 11 0 1 1;
#X connect 13 0 12 0;
#X connect 14 0 25 0;
#X connect 14 0 15 0;
#X connect 15 0 16 0;
#X connect 16 0 17 0;
#X connect 17 0 18 0;
#X connect 18 0 22 0;
#X connect 19 0 23 0;
#X connect 20 0 18 1;
#X connect 21 0 13 0;
#X connect 22 0 21 1;
#X connect 23 0 20 0;
#X connect 24 0 1 0;
#X connect 25 0 0 0;
#X restore 162 271 pd 808HighTom;
#N canvas 0 25 450 300 808Cowbell 0;
#X obj 38 100 -~ 0.5;
#X obj 148 180 *~;
#X obj 150 101 -~ 0.5;
#X obj 150 124 bp~ 830 0.4;
#X msg 256 78 1 4 \, 0 250 4;
#X obj 256 101 vline~;
#X obj 256 124 pow~ 6;
#X obj 363 99 vline~;
#X msg 363 76 0.5 4 \, 0 600 4;
#X obj 363 122 pow~ 3;
#X obj 148 203 *~ 0.5;
#X obj 306 21 inlet;
#X obj 38 77 phasor~ 550;
#X obj 150 78 phasor~ 830;
#X obj 148 231 outlet~;
#X connect 0 0 1 0;
#X connect 1 0 10 0;
#X connect 2 0 3 0;
#X connect 3 0 1 0;
#X connect 4 0 5 0;
#X connect 5 0 6 0;
#X connect 6 0 1 1;
#X connect 7 0 9 0;
#X connect 8 0 7 0;
#X connect 9 0 1 1;
#X connect 10 0 14 0;
#X connect 11 0 4 0;
#X connect 11 0 8 0;
#X connect 12 0 0 0;
#X connect 13 0 2 0;
#X restore 100 318 pd 808Cowbell;
#N canvas 930 525 450 300 808Clap 0;
#X obj 110 76 noise~;
#X obj 110 145 *~;
#N canvas 593 336 578 300 multi_envelope 0;
#X obj 37 7 inlet;
#X obj 37 210 *~ 1;
#N canvas 576 424 768 300 env 0;
#X obj 280 83 inlet;
#X msg 280 129 1 0.2 \, 0 \$1 0.2;
#X obj 280 152 vline~;
#X obj 280 175 *~;
#X obj 280 198 *~;
#X obj 280 221 outlet~;
#X obj 280 106 f 10;
#X connect 0 0 6 0;
#X connect 1 0 2 0;
#X connect 2 0 3 0;
#X connect 2 0 3 1;
#X connect 3 0 4 0;
#X connect 3 0 4 1;
#X connect 4 0 5 0;
#X connect 6 0 1 0;
#X restore 54 136 pd env;
#X obj 37 233 outlet~;
#X obj 82 44 del 10;
#X obj 139 73 del 10;
#X obj 212 102 del 10;
#N canvas 545 459 768 300 env 0;
#X obj 280 83 inlet;
#X msg 280 129 1 0.2 \, 0 \$1 0.2;
#X obj 280 152 vline~;
#X obj 280 175 *~;
#X obj 280 198 *~;
#X obj 280 221 outlet~;
#X obj 280 106 f 10;
#X connect 0 0 6 0;
#X connect 1 0 2 0;
#X connect 2 0 3 0;
#X connect 2 0 3 1;
#X connect 3 0 4 0;
#X connect 3 0 4 1;
#X connect 4 0 5 0;
#X connect 6 0 1 0;
#X restore 114 136 pd env;
#N canvas 545 459 768 300 env 0;
#X obj 280 83 inlet;
#X msg 280 129 1 0.2 \, 0 \$1 0.2;
#X obj 280 152 vline~;
#X obj 280 175 *~;
#X obj 280 198 *~;
#X obj 280 221 outlet~;
#X obj 280 106 f 10;
#X connect 0 0 6 0;
#X connect 1 0 2 0;
#X connect 2 0 3 0;
#X connect 2 0 3 1;
#X connect 3 0 4 0;
#X connect 3 0 4 1;
#X connect 4 0 5 0;
#X connect 6 0 1 0;
#X restore 174 136 pd env;
#N canvas 563 455 768 300 envLast 0;
#X obj 280 83 inlet;
#X msg 280 129 1 0.2 \, 0 \$1 0.2;
#X obj 280 152 vline~;
#X obj 280 175 *~;
#X obj 280 198 *~;
#X obj 280 221 outlet~;
#X obj 280 106 f 125;
#X connect 0 0 6 0;
#X connect 1 0 2 0;
#X connect 2 0 3 0;
#X connect 2 0 3 1;
#X connect 3 0 4 0;
#X connect 3 0 4 1;
#X connect 4 0 5 0;
#X connect 6 0 1 0;
#X restore 234 136 pd envLast;
#X connect 0 0 2 0;
#X connect 0 0 4 0;
#X connect 1 0 3 0;
#X connect 2 0 1 0;
#X connect 4 0 5 0;
#X connect 4 0 7 0;
#X connect 5 0 6 0;
#X connect 5 0 8 0;
#X connect 6 0 9 0;
#X connect 7 0 1 0;
#X connect 8 0 1 0;
#X connect 9 0 1 0;
#X restore 243 208 pd multi_envelope;
#X obj 243 167 inlet;
#X obj 74 226 outlet~;
#X obj 74 198 *~ 1;
#X obj 110 99 hip~ 800;
#X obj 110 122 lop~ 1200;
#X connect 0 0 6 0;
#X connect 1 0 5 0;
#X connect 2 0 1 1;
#X connect 3 0 2 0;
#X connect 5 0 4 0;
#X connect 6 0 7 0;
#X connect 7 0 1 0;
#X restore 283 342 pd 808Clap;
#X obj 308 41 inlet;
#X text 363 42 sequence in;
#X obj 308 70 unpack f f f f f f f f;
#X obj 308 98 sel 1;
#X obj 308 122 bng 15 250 50 0 empty empty empty 17 7 0 10 -262144
-1 -1;
#X obj 331 122 sel 1;
#X obj 331 146 bng 15 250 50 0 empty empty empty 17 7 0 10 -262144
-1 -1;
#X obj 356 149 sel 1;
#X obj 356 173 bng 15 250 50 0 empty empty empty 17 7 0 10 -262144
-1 -1;
#X obj 379 173 sel 1;
#X obj 379 197 bng 15 250 50 0 empty empty empty 17 7 0 10 -262144
-1 -1;
#X obj 402 197 sel 1;
#X obj 402 221 bng 15 250 50 0 empty empty empty 17 7 0 10 -262144
-1 -1;
#X obj 425 221 sel 1;
#X obj 425 245 bng 15 250 50 0 empty empty empty 17 7 0 10 -262144
-1 -1;
#X obj 450 248 sel 1;
#X obj 450 272 bng 15 250 50 0 empty empty empty 17 7 0 10 -262144
-1 -1;
#X obj 473 272 sel 1;
#X obj 473 296 bng 15 250 50 0 empty empty empty 17 7 0 10 -262144
-1 -1;
#X connect 0 0 2 0;
#X connect 2 0 11 0;
#X connect 2 1 12 0;
#X connect 2 2 13 0;
#X connect 2 3 14 0;
#X connect 2 4 15 0;
#X connect 2 5 16 0;
#X connect 2 6 17 0;
#X connect 2 7 18 0;
#X connect 11 0 3 0;
#X connect 12 0 4 0;
#X connect 13 0 5 0;
#X connect 14 0 6 0;
#X connect 15 0 7 0;
#X connect 16 0 8 0;
#X connect 17 0 9 0;
#X connect 18 0 10 0;
#X connect 19 0 21 0;
#X connect 21 0 22 0;
#X connect 21 1 24 0;
#X connect 21 2 26 0;
#X connect 21 3 28 0;
#X connect 21 4 30 0;
#X connect 21 5 32 0;
#X connect 21 6 34 0;
#X connect 21 7 36 0;
#X connect 22 0 23 0;
#X connect 23 0 11 0;
#X connect 24 0 25 0;
#X connect 25 0 12 0;
#X connect 26 0 27 0;
#X connect 27 0 13 0;
#X connect 28 0 29 0;
#X connect 29 0 14 0;
#X connect 30 0 31 0;
#X connect 31 0 15 0;
#X connect 32 0 33 0;
#X connect 33 0 16 0;
#X connect 34 0 35 0;
#X connect 35 0 17 0;
#X connect 36 0 37 0;
#X connect 37 0 18 0;
#X restore 349 335 pd 808;
#X obj 392 269 == 3;
#X text 12 0 Drum hits are triggerd by pressing keys 1-8;
#X text 19 128 Menu Mode;
#X obj 89 161 s menu;
#X obj 268 98 r menu;
#X obj 51 221 r menu;
#N canvas 320 180 1120 480 clock 0;
#X obj 100 100 cnv 15 75 125 empty empty Clock 20 12 1 14 -237241 -66577
0;
#X obj 109 138 tgl 25 0 \$0-run-clock \$0-update-toggle Run 4 -6 0
10 -262144 -1 -1 0 1;
#X text 534 67 Update tempo label;
#X obj 399 42 r \$0-send-tempo;
#X obj 536 114 s \$0-rec-tempo-label;
#X obj 399 72 + 0.5;
#X obj 399 98 int;
#X floatatom 399 122 5 0 0 0 - - -;
#X msg 399 147 tempo \$1 permin;
#X obj 399 210 metro 0.25 120 permin;
#X obj 416 178 r \$0-run-clock;
#X obj 399 240 bng 15 250 50 0 empty empty empty 17 7 0 10 -262144
-1 -1;
#X obj 489 384 s \$0-update-toggle;
#X obj 477 323 sel 0;
#X obj 477 297 r \$0-run-clock;
#X msg 437 356 color #ffffff;
#X obj 270 324 bng 15 250 50 0 empty empty empty 17 7 0 10 -262144
-1 -1;
#X obj 270 296 metro 1 120 permin;
#X obj 270 348 s \$0-blink;
#X msg 545 343 color #00BA00;
#X obj 131 174 bng 12 250 50 0 empty empty empty 17 7 0 10 -224758
-258113 -262144;
#X obj 185 133 r \$0-blink;
#X text 270 371 blink the red bang;
#X msg 536 91 label _\$1;
#X floatatom 120 190 5 30 300 0 - - #0-send-tempo;
#X obj 399 262 outlet;
#X obj 102 208 cnv 15 16 16 empty empty TMP 0 12 0 8 -237241 -66577
0;
#X obj 225 189 loadbang;
#X msg 225 211 120;
#N canvas 757 269 639 545 metronome 0;
#X obj 114 280 dac~;
#X obj 161 191 phasor~ 440;
#X obj 27 214 expr~ $v1 > 0.5;
#X obj 27 239 *~;
#X obj 27 191 phasor~ 880;
#N canvas 0 25 450 300 metro-env 0;
#X obj 182 125 vline~;
#X obj 182 148 *~;
#X obj 182 171 *~;
#X msg 182 102 1 0.2 \, 0 50 0.2;
#X obj 182 77 inlet;
#X obj 182 198 outlet~;
#X connect 0 0 1 0;
#X connect 0 0 1 1;
#X connect 1 0 2 0;
#X connect 1 0 2 1;
#X connect 2 0 5 0;
#X connect 3 0 0 0;
#X connect 4 0 3 0;
#X restore 61 239 pd metro-env;
#X obj 161 214 expr~ $v1 > 0.5;
#X obj 161 239 *~;
#N canvas 0 25 450 300 metro-env 0;
#X obj 182 125 vline~;
#X obj 182 148 *~;
#X obj 182 171 *~;
#X msg 182 102 1 0.2 \, 0 50 0.2;
#X obj 182 77 inlet;
#X obj 182 198 outlet~;
#X connect 0 0 1 0;
#X connect 0 0 1 1;
#X connect 1 0 2 0;
#X connect 1 0 2 1;
#X connect 2 0 5 0;
#X connect 3 0 0 0;
#X connect 4 0 3 0;
#X restore 195 239 pd metro-env;
#X obj 54 -31 r \$0-blink;
#X obj 101 41 f;
#X obj 135 41 + 1;
#X obj 101 64 % 4;
#X obj 101 112 bng 15 250 50 0 empty empty empty 17 7 0 10 -262144
-1 -1;
#X obj 133 112 bng 15 250 50 0 empty empty empty 17 7 0 10 -262144
-1 -1;
#X floatatom 135 64 5 0 0 0 - - -;
#X obj 101 87 sel 0;
#X obj 192 20 r \$0-run-clock;
#X floatatom 192 47 5 0 0 0 - - -;
#X obj 192 71 sel 0;
#X msg 192 95 0;
#X obj 140 -31 r \$0-run-record;
#X text 344 -144 comment;
#X obj 101 16 bng 15 250 50 0 empty empty empty 17 7 0 10 -262144 -1
-1;
#X obj 101 -9 spigot;
#X connect 1 0 6 0;
#X connect 2 0 3 0;
#X connect 3 0 0 0;
#X connect 3 0 0 1;
#X connect 4 0 2 0;
#X connect 5 0 3 1;
#X connect 6 0 7 0;
#X connect 7 0 0 0;
#X connect 7 0 0 1;
#X connect 8 0 7 1;
#X connect 9 0 24 0;
#X connect 10 0 11 0;
#X connect 10 0 12 0;
#X connect 11 0 10 1;
#X connect 12 0 15 0;
#X connect 12 0 16 0;
#X connect 13 0 5 0;
#X connect 14 0 8 0;
#X connect 16 0 13 0;
#X connect 16 1 14 0;
#X connect 17 0 18 0;
#X connect 18 0 19 0;
#X connect 19 0 20 0;
#X connect 20 0 10 1;
#X connect 21 0 24 1;
#X connect 23 0 10 0;
#X connect 24 0 23 0;
#X restore 92 241 pd metronome;
#X obj 141 138 tgl 25 0 \$0-run-record \$0-update-record-toggle Rec
4 -6 0 10 -262144 -1 -1 0 1;
#X obj 700 311 sel 0;
#X msg 660 344 color #ffffff;
#X obj 712 373 s \$0-update-record-toggle;
#X obj 700 285 r \$0-run-record;
#X msg 768 331 color #DD1D00;
#X obj 858 270 outlet;
#X obj 858 195 f;
#X obj 891 195 + 1;
#X obj 858 221 % 16;
#X floatatom 858 246 5 0 0 0 - - -;
#X text 826 244 Step;
#X obj 156 208 cnv 15 16 16 empty empty STEP 0 12 0 8 -237241 -66577
0;
#X obj 922 250 r \$0-run-clock;
#X floatatom 922 277 5 0 0 0 - - -;
#X obj 922 301 sel 0;
#X msg 922 325 -1;
#X connect 3 0 5 0;
#X connect 5 0 6 0;
#X connect 6 0 7 0;
#X connect 7 0 8 0;
#X connect 7 0 23 0;
#X connect 8 0 9 0;
#X connect 8 0 17 0;
#X connect 9 0 11 0;
#X connect 10 0 9 0;
#X connect 10 0 17 0;
#X connect 11 0 25 0;
#X connect 11 0 37 0;
#X connect 13 0 15 0;
#X connect 13 1 19 0;
#X connect 14 0 13 0;
#X connect 15 0 12 0;
#X connect 16 0 18 0;
#X connect 17 0 16 0;
#X connect 19 0 12 0;
#X connect 21 0 20 0;
#X connect 23 0 4 0;
#X connect 27 0 28 0;
#X connect 28 0 24 0;
#X connect 31 0 32 0;
#X connect 31 1 35 0;
#X connect 32 0 33 0;
#X connect 34 0 31 0;
#X connect 35 0 33 0;
#X connect 37 0 38 0;
#X connect 37 0 39 0;
#X connect 38 0 37 1;
#X connect 39 0 40 0;
#X connect 40 0 36 0;
#X connect 43 0 44 0;
#X connect 44 0 45 0;
#X connect 45 0 46 0;
#X connect 46 0 37 0;
#X coords 0 -1 1 1 75 125 2 100 100;
#X restore 517 9 pd clock;
#X obj 517 148 s clock-out;
#N canvas 38 25 908 781 sequences 1;
#N canvas 0 22 450 278 (subpatch) 0;
#X array seq1 16 float 3;
#A 0 0 0 0 0 0 0 0 0 0 0 0 0 0 0 0 0;
#X coords 0 1 16 -1 200 140 1;
#X restore 40 86 graph;
#X obj 171 249 r step-out;
#X floatatom 171 272 5 0 0 0 - - -;
#X obj 292 -8 sel 49 50 51 52 53 54 55 56;
#X obj 292 -85 r key;
#X obj 251 22 s seq1_trig;
#X obj 41 247 r seq1_trig;
#X obj 41 298 tabwrite seq1 \$1 \$2;
#X msg 41 272 1;
#N canvas 0 22 450 278 (subpatch) 0;
#X array seq2 16 float 3;
#A 0 0 0 0 0 0 0 0 0 0 0 0 0 0 0 0 0;
#X coords 0 1 16 -1 200 140 1 0 0;
#X restore 271 86 graph;
#X obj 402 249 r step-out;
#X floatatom 402 272 5 0 0 0 - - -;
#X msg 272 272 1;
#X obj 272 248 r seq2_trig;
#N canvas 0 22 450 278 (subpatch) 0;
#X array seq3 16 float 3;
#A 0 0 0 0 0 0 0 0 0 0 0 0 0 0 0 0 0;
#X coords 0 1 16 -1 200 140 1 0 0;
#X restore 510 86 graph;
#X obj 641 249 r step-out;
#X floatatom 641 272 5 0 0 0 - - -;
#X msg 511 272 1;
#X obj 511 248 r seq3_trig;
#X obj 339 22 s seq3_trig;
#X obj 358 48 s seq4_trig;
#X obj 429 23 s seq5_trig;
#X obj 448 48 s seq6_trig;
#N canvas 0 22 450 278 (subpatch) 0;
#X array seq4 16 float 3;
#A 0 0 0 0 0 0 0 0 0 0 0 0 0 0 0 0 0;
#X coords 0 1 16 -1 200 140 1 0 0;
#X restore 40 366 graph;
#X obj 171 529 r step-out;
#X floatatom 171 552 5 0 0 0 - - -;
#X msg 41 552 1;
#N canvas 0 22 450 278 (subpatch) 0;
#X array seq5 16 float 3;
#A 0 0 0 0 0 0 0 0 0 0 0 0 0 0 0 0 0;
#X coords 0 1 16 -1 200 140 1 0 0;
#X restore 271 366 graph;
#X obj 402 529 r step-out;
#X floatatom 402 552 5 0 0 0 - - -;
#X msg 272 552 1;
#N canvas 0 22 450 278 (subpatch) 0;
#X array seq6 16 float 3;
#A 0 0 0 0 0 0 0 0 0 0 0 0 0 0 0 0 0;
#X coords 0 1 16 -1 200 140 1 0 0;
#X restore 510 366 graph;
#X obj 641 529 r step-out;
#X floatatom 641 552 5 0 0 0 - - -;
#X msg 511 552 1;
#X obj 41 527 r seq4_trig;
#X obj 272 528 r seq5_trig;
#X obj 511 528 r seq6_trig;
#N canvas 0 22 450 278 (subpatch) 0;
#X array seq7 16 float 3;
#A 0 0 0 0 0 0 0 0 0 0 0 0 0 0 0 0 0;
#X coords 0 1 16 -1 200 140 1 0 0;
#X restore 40 646 graph;
#X obj 171 809 r step-out;
#X floatatom 171 832 5 0 0 0 - - -;
#X msg 41 832 1;
#N canvas 0 22 450 278 (subpatch) 0;
#X array seq8 16 float 3;
#A 0 0 0 0 0 0 0 0 0 0 0 0 0 0 0 0 0;
#X coords 0 1 16 -1 200 140 1 0 0;
#X restore 271 646 graph;
#X obj 402 809 r step-out;
#X floatatom 402 832 5 0 0 0 - - -;
#X msg 272 832 1;
#X obj 41 807 r seq7_trig;
#X obj 272 808 r seq8_trig;
#X obj 519 23 s seq7_trig;
#X obj 538 48 s seq8_trig;
#X msg 510 646 \; seq1 const 0 \; seq2 const 0 \; seq3 const 0 \; seq4
const 0 \; seq5 const 0 \; seq6 const 0 \; seq7 const 0 \; seq8 const
0 \;;
#X obj 269 47 s seq2_trig;
#X obj 272 298 tabwrite seq2 \$1 \$2;
#X obj 511 298 tabwrite seq3 \$1 \$2;
#X obj 40 578 tabwrite seq4 \$1 \$2;
#X obj 272 578 tabwrite seq5 \$1 \$2;
#X obj 511 578 tabwrite seq6 \$1 \$2;
#X obj 41 858 tabwrite seq7 \$1 \$2;
#X obj 272 858 tabwrite seq8 \$1 \$2;
#X obj 292 -34 spigot;
#X obj 331 -60 r \$0-run-record;
#X obj 629 643 tabread seq1;
#X obj 629 843 pack f f f f f f f f;
#X obj 629 615 r step-out;
#X obj 648 668 tabread seq2;
#X obj 667 693 tabread seq3;
#X obj 686 718 tabread seq4;
#X obj 704 743 tabread seq5;
#X obj 723 768 tabread seq6;
#X obj 742 793 tabread seq7;
#X obj 761 818 tabread seq8;
#X obj 629 868 outlet;
#X connect 1 0 2 0;
#X connect 2 0 7 1;
#X connect 3 0 5 0;
#X connect 3 1 51 0;
#X connect 3 2 19 0;
#X connect 3 3 20 0;
#X connect 3 4 21 0;
#X connect 3 5 22 0;
#X connect 3 6 48 0;
#X connect 3 7 49 0;
#X connect 4 0 59 0;
#X connect 6 0 8 0;
#X connect 8 0 7 0;
#X connect 10 0 11 0;
#X connect 11 0 52 1;
#X connect 12 0 52 0;
#X connect 13 0 12 0;
#X connect 15 0 16 0;
#X connect 16 0 53 1;
#X connect 17 0 53 0;
#X connect 18 0 17 0;
#X connect 24 0 25 0;
#X connect 25 0 54 1;
#X connect 26 0 54 0;
#X connect 28 0 29 0;
#X connect 29 0 55 1;
#X connect 30 0 55 0;
#X connect 32 0 33 0;
#X connect 33 0 56 1;
#X connect 34 0 56 0;
#X connect 35 0 26 0;
#X connect 36 0 30 0;
#X connect 37 0 34 0;
#X connect 39 0 40 0;
#X connect 40 0 57 1;
#X connect 41 0 57 0;
#X connect 43 0 44 0;
#X connect 44 0 58 1;
#X connect 45 0 58 0;
#X connect 46 0 41 0;
#X connect 47 0 45 0;
#X connect 59 0 3 0;
#X connect 60 0 59 1;
#X connect 61 0 62 0;
#X connect 62 0 71 0;
#X connect 63 0 61 0;
#X connect 63 0 64 0;
#X connect 63 0 65 0;
#X connect 63 0 66 0;
#X connect 63 0 67 0;
#X connect 63 0 68 0;
#X connect 63 0 69 0;
#X connect 63 0 70 0;
#X connect 64 0 62 1;
#X connect 65 0 62 2;
#X connect 66 0 62 3;
#X connect 67 0 62 4;
#X connect 68 0 62 5;
#X connect 69 0 62 6;
#X connect 69 0 62 7;
#X connect 70 0 62 7;
#X restore 348 205 pd sequences;
#X obj 607 173 s step-out;
#X floatatom 607 149 5 0 0 0 - - -;
#N canvas 357 396 450 300 pass-trigs 0;
#X obj 53 52 inlet;
#X obj 185 52 inlet;
#X obj 311 54 inlet;
#X text 54 27 note trig;
#X text 176 28 seq trig;
#X text 316 27 condition;
#X obj 308 104 tgl 15 0 empty empty empty 17 7 0 10 -262144 -1 -1 0
1;
#X obj 68 141 spigot;
#X obj 156 145 spigot;
#X obj 55 209 outlet;
#X obj 161 210 outlet;
#X obj 103 105 tgl 19 0 empty empty Pass 21 10 0 10 -257985 -33289
-1 0 1;
#X connect 0 0 7 0;
#X connect 1 0 8 0;
#X connect 2 0 6 0;
#X connect 6 0 7 1;
#X connect 6 0 8 1;
#X connect 6 0 11 0;
#X connect 7 0 9 0;
#X connect 8 0 10 0;
#X coords 0 -1 1 1 50 30 2 100 100;
#X restore 197 295 pd pass-trigs;
#N canvas 357 396 450 300 pass-trigs 0;
#X obj 53 52 inlet;
#X obj 185 52 inlet;
#X obj 311 54 inlet;
#X text 54 27 note trig;
#X text 176 28 seq trig;
#X text 316 27 condition;
#X obj 308 104 tgl 15 0 empty empty empty 17 7 0 10 -262144 -1 -1 0
1;
#X obj 68 141 spigot;
#X obj 156 145 spigot;
#X obj 55 209 outlet;
#X obj 161 210 outlet;
#X obj 103 105 tgl 19 0 empty empty Pass 21 10 0 10 -257985 -33289
-1 0 1;
#X connect 0 0 7 0;
#X connect 1 0 8 0;
#X connect 2 0 6 0;
#X connect 6 0 7 1;
#X connect 6 0 8 1;
#X connect 6 0 11 0;
#X connect 7 0 9 0;
#X connect 8 0 10 0;
#X coords 0 -1 1 1 50 30 2 100 100;
#X restore 274 295 pd pass-trigs;
#N canvas 357 396 450 300 pass-trigs 0;
#X obj 53 52 inlet;
#X obj 185 52 inlet;
#X obj 311 54 inlet;
#X text 54 27 note trig;
#X text 176 28 seq trig;
#X text 316 27 condition;
#X obj 308 104 tgl 15 0 empty empty empty 17 7 0 10 -262144 -1 -1 1
1;
#X obj 68 141 spigot;
#X obj 156 145 spigot;
#X obj 55 209 outlet;
#X obj 161 210 outlet;
#X obj 103 105 tgl 19 0 empty empty Pass 21 10 0 10 -257985 -33289
-1 1 1;
#X connect 0 0 7 0;
#X connect 1 0 8 0;
#X connect 2 0 6 0;
#X connect 6 0 7 1;
#X connect 6 0 8 1;
#X connect 6 0 11 0;
#X connect 7 0 9 0;
#X connect 8 0 10 0;
#X coords 0 -1 1 1 50 30 2 100 100;
#X restore 349 295 pd pass-trigs;
#X connect 0 0 1 0;
#X connect 1 0 3 0;
#X connect 2 0 8 0;
#X connect 2 1 5 0;
#X connect 4 0 2 0;
#X connect 5 0 9 0;
#X connect 6 0 7 0;
#X connect 6 0 7 1;
#X connect 8 0 28 0;
#X connect 9 0 10 0;
#X connect 10 0 11 0;
#X connect 13 0 36 0;
#X connect 13 0 37 0;
#X connect 13 0 38 0;
#X connect 15 0 36 2;
#X connect 16 0 15 0;
#X connect 16 0 17 0;
#X connect 16 0 25 0;
#X connect 17 0 37 2;
#X connect 25 0 38 2;
#X connect 29 0 9 1;
#X connect 30 0 19 0;
#X connect 31 0 32 0;
#X connect 31 1 35 0;
#X connect 33 0 36 1;
#X connect 33 0 37 1;
#X connect 33 0 38 1;
#X connect 35 0 34 0;
#X connect 36 0 14 0;
#X connect 36 1 14 1;
#X connect 37 0 18 0;
#X connect 37 1 18 1;
#X connect 38 0 24 0;
#X connect 38 1 24 1;
