#N canvas 383 91 714 618 12;
#X obj 14 25 key;
#X floatatom 14 50 5 0 0 0 - - -;
#X obj 163 48 sel 32;
#X obj 14 74 s key;
#X obj 163 25 r key;
#X floatatom 202 72 5 0 0 0 - - -;
#X obj 603 529 catch~ bus;
#X obj 603 558 dac~;
#X obj 89 133 tgl 20 0 empty empty empty 17 7 0 10 -262144 -258113
-1 0 1;
#X obj 202 98 pack f f;
#X obj 202 124 expr if ($f2 == 1 \, 0 \, $f1);
#X obj 202 147 s drum-trig;
#X text 244 73 Key note in;
#X obj 192 204 r drum-trig;
#N canvas 0 25 450 462 (subpatch) 0;
#X obj 37 37 inlet;
#X text 86 36 note in;
#X obj 37 71 sel 49 50 51 52 53 54 55 56;
#X obj 37 107 sample 707/Kick.wav;
#X obj 37 128 throw~ bus;
#X obj 120 152 throw~ bus;
#X obj 120 131 sample 707/Snare.wav;
#X obj 58 199 throw~ bus;
#X obj 141 223 throw~ bus;
#X obj 58 178 sample 707/CHat.wav;
#X obj 141 202 sample 707/OHat.wav;
#X obj 79 268 throw~ bus;
#X obj 162 292 throw~ bus;
#X obj 100 339 throw~ bus;
#X obj 79 247 sample 707/Rim.wav;
#X obj 162 271 sample 707/Tom1.wav;
#X obj 100 318 sample 707/Tom2.wav;
#X obj 183 342 sample 707/Clap.wav;
#X obj 183 364 throw~ bus;
#X connect 0 0 2 0;
#X connect 2 0 3 0;
#X connect 2 1 6 0;
#X connect 2 2 9 0;
#X connect 2 3 10 0;
#X connect 2 4 14 0;
#X connect 2 5 15 0;
#X connect 2 6 16 0;
#X connect 2 7 17 0;
#X connect 3 0 4 0;
#X connect 6 0 5 0;
#X connect 9 0 7 0;
#X connect 10 0 8 0;
#X connect 14 0 11 0;
#X connect 15 0 12 0;
#X connect 16 0 13 0;
#X connect 17 0 18 0;
#X restore 197 335 pd 707;
#X obj 236 269 == 1;
#X obj 284 204 r patch;
#X obj 197 301 spigot;
#X obj 250 302 tgl 15 0 empty empty empty 17 7 0 10 -257985 -1 -1 0
1;
#X obj 282 301 spigot;
#X obj 335 302 tgl 15 0 empty empty empty 17 7 0 10 -257985 -1 -1 0
1;
#X obj 321 269 == 2;
#N canvas 947 208 450 462 (subpatch) 0;
#X obj 37 37 inlet;
#X text 86 36 note in;
#X obj 37 71 sel 49 50 51 52 53 54 55 56;
#X obj 37 128 throw~ bus;
#X obj 120 152 throw~ bus;
#X obj 58 199 throw~ bus;
#X obj 141 223 throw~ bus;
#X obj 79 268 throw~ bus;
#X obj 162 292 throw~ bus;
#X obj 100 339 throw~ bus;
#X obj 37 107 sample 505/Kick.wav;
#X obj 120 131 sample 505/Snare.wav;
#X obj 58 178 sample 505/CHat.wav;
#X obj 141 202 sample 505/OHat.wav;
#X obj 79 247 sample 505/LowTom.wav;
#X obj 162 271 sample 505/LowConga.wav;
#X obj 100 318 sample 505/HiConga.wav;
#X obj 183 342 sample 505/HiCowbell.wav;
#X obj 183 365 throw~ bus;
#X connect 0 0 2 0;
#X connect 2 0 10 0;
#X connect 2 1 11 0;
#X connect 2 2 12 0;
#X connect 2 3 13 0;
#X connect 2 4 14 0;
#X connect 2 5 15 0;
#X connect 2 6 16 0;
#X connect 2 7 17 0;
#X connect 10 0 3 0;
#X connect 11 0 4 0;
#X connect 12 0 5 0;
#X connect 13 0 6 0;
#X connect 14 0 7 0;
#X connect 15 0 8 0;
#X connect 16 0 9 0;
#X connect 17 0 18 0;
#X restore 282 335 pd 505;
#N canvas 52 52 446 300 menu 0;
#X obj 157 358 spigot;
#X obj 98 226 sel 49 50 51 52 53 54 55 56;
#X msg 109 277 1;
#X msg 147 277 2;
#X obj 98 199 r key;
#X obj 157 387 s patch;
#X obj 232 326 inlet;
#X obj 25 199 loadbang;
#X msg 185 277 3;
#X connect 0 0 5 0;
#X connect 1 0 2 0;
#X connect 1 1 3 0;
#X connect 1 2 8 0;
#X connect 2 0 0 0;
#X connect 3 0 0 0;
#X connect 4 0 1 0;
#X connect 6 0 0 1;
#X connect 7 0 2 0;
#X connect 8 0 0 0;
#X restore 51 244 pd menu;
#X text 20 266 Main and sub-menu;
#X text 19 281 for controlling;
#X text 20 296 spiemachine features;
#X text 18 143 (Spacebar);
#N canvas 593 329 450 462 (subpatch) 0;
#X obj 37 37 inlet;
#X text 86 36 note in;
#X obj 37 71 sel 49 50 51 52 53 54 55 56;
#X obj 37 128 throw~ bus;
#X obj 120 152 throw~ bus;
#X obj 58 199 throw~ bus;
#X obj 141 223 throw~ bus;
#X obj 79 268 throw~ bus;
#X obj 162 292 throw~ bus;
#X obj 100 339 throw~ bus;
#X obj 283 364 throw~ bus;
#N canvas 144 551 450 300 808Kick 0;
#X obj 216 101 line~;
#X obj 216 124 sqrt~;
#X obj 216 147 *~ 20;
#X obj 216 170 -~ 0.25;
#X obj 216 200 cos~;
#X msg 216 77 0 \, 1 220;
#X obj 216 41 inlet;
#X obj 216 231 outlet~;
#X obj 261 200 *~ 0.5;
#X connect 0 0 1 0;
#X connect 1 0 2 0;
#X connect 2 0 3 0;
#X connect 3 0 4 0;
#X connect 4 0 8 0;
#X connect 5 0 0 0;
#X connect 6 0 5 0;
#X connect 8 0 7 0;
#X restore 37 107 pd 808Kick;
#N canvas 860 25 450 300 808Snare 0;
#X obj 60 64 t b b;
#X msg 60 87 1 \, 0 100;
#X obj 60 111 line~;
#X obj 60 134 pow~ 4;
#X obj 60 157 *~;
#X obj 60 180 +~;
#X obj 116 135 osc~ 200;
#X msg 200 87 1 \, 0 100;
#X obj 200 111 line~;
#X obj 200 134 pow~ 4;
#X obj 200 157 *~;
#X obj 276 94 noise~;
#X obj 276 117 hip~ 3000;
#X obj 276 140 bp~ 5000 2;
#X obj 60 30 inlet;
#X obj 60 210 outlet~;
#X connect 0 0 1 0;
#X connect 0 1 7 0;
#X connect 1 0 2 0;
#X connect 2 0 3 0;
#X connect 3 0 4 0;
#X connect 4 0 5 0;
#X connect 5 0 15 0;
#X connect 6 0 4 1;
#X connect 7 0 8 0;
#X connect 8 0 9 0;
#X connect 9 0 10 0;
#X connect 10 0 5 1;
#X connect 11 0 12 0;
#X connect 12 0 13 0;
#X connect 13 0 10 1;
#X connect 14 0 0 0;
#X restore 120 131 pd 808Snare;
#N canvas 0 25 450 300 808CHat 0;
#X obj 91 320 line~;
#X obj 91 343 pow~ 4;
#X obj 91 366 *~;
#X obj 164 303 hip~ 8000;
#X obj 164 326 hip~ 8000;
#X obj 164 349 hip~ 8000;
#X obj 164 175 phasor~ 350;
#X obj 164 198 *~ 2;
#X obj 164 221 -~ 1;
#X obj 164 244 +~;
#X obj 252 198 *~ 2;
#X obj 252 221 -~ 1;
#X obj 251 175 phasor~ 800;
#X obj 91 127 inlet;
#X obj 89 428 outlet~;
#X obj 252 249 noise~;
#X obj 252 272 /~ 5;
#X msg 91 297 1 \, 0 100;
#X obj 91 389 *~ 8;
#X connect 0 0 1 0;
#X connect 1 0 2 0;
#X connect 2 0 18 0;
#X connect 3 0 4 0;
#X connect 4 0 5 0;
#X connect 5 0 2 1;
#X connect 6 0 7 0;
#X connect 7 0 8 0;
#X connect 8 0 9 0;
#X connect 9 0 3 0;
#X connect 10 0 11 0;
#X connect 11 0 9 1;
#X connect 12 0 10 0;
#X connect 13 0 17 0;
#X connect 15 0 16 0;
#X connect 16 0 3 0;
#X connect 17 0 0 0;
#X connect 18 0 14 0;
#X restore 58 178 pd 808CHat;
#N canvas 0 25 450 300 808OHat 0;
#X obj 91 320 line~;
#X obj 91 343 pow~ 4;
#X obj 91 366 *~;
#X obj 164 303 hip~ 8000;
#X obj 164 326 hip~ 8000;
#X obj 164 349 hip~ 8000;
#X obj 91 389 *~ 4;
#X obj 164 175 phasor~ 350;
#X obj 164 198 *~ 2;
#X obj 164 221 -~ 1;
#X obj 164 244 +~;
#X obj 252 198 *~ 2;
#X obj 252 221 -~ 1;
#X obj 251 175 phasor~ 800;
#X obj 91 127 inlet;
#X obj 89 428 outlet~;
#X obj 252 249 noise~;
#X obj 252 272 /~ 2;
#X msg 91 297 1 \, 0 450;
#X connect 0 0 1 0;
#X connect 1 0 2 0;
#X connect 2 0 6 0;
#X connect 3 0 4 0;
#X connect 4 0 5 0;
#X connect 5 0 2 1;
#X connect 6 0 15 0;
#X connect 7 0 8 0;
#X connect 8 0 9 0;
#X connect 9 0 10 0;
#X connect 10 0 3 0;
#X connect 11 0 12 0;
#X connect 12 0 10 1;
#X connect 13 0 11 0;
#X connect 14 0 18 0;
#X connect 16 0 17 0;
#X connect 17 0 3 0;
#X connect 18 0 0 0;
#X restore 141 202 pd 808OHat;
#N canvas 0 25 450 300 808LowTom 0;
#X obj 141 113 line~;
#X obj 189 180 +~;
#X obj 239 137 sqrt~;
#X obj 189 204 -~ 0.25;
#X obj 189 228 cos~;
#X obj 141 295 *~;
#X obj 141 157 *~ -1;
#X obj 141 181 +~ 1;
#X obj 189 252 *~ 2;
#X obj 189 276 expr~ tanh($v1);
#X obj 141 205 *~;
#X obj 239 161 *~ 30;
#X obj 141 343 outlet~;
#X obj 141 319 *~ 0.5;
#X obj 140 63 inlet;
#X msg 300 87 1 \, 0 100;
#X obj 300 111 line~;
#X obj 300 134 pow~ 4;
#X obj 300 157 *~;
#X obj 376 94 noise~;
#X obj 376 140 bp~ 5000 2;
#X obj 240 311 +~;
#X msg 140 89 0 \, 1 400;
#X obj 189 156 *~ 33;
#X obj 311 223 *~ 0.1;
#X obj 376 117 hip~ 3500;
#X connect 0 0 2 0;
#X connect 0 0 6 0;
#X connect 0 0 23 0;
#X connect 1 0 3 0;
#X connect 2 0 11 0;
#X connect 3 0 4 0;
#X connect 4 0 8 0;
#X connect 5 0 21 0;
#X connect 6 0 7 0;
#X connect 7 0 10 0;
#X connect 7 0 10 1;
#X connect 8 0 9 0;
#X connect 9 0 5 1;
#X connect 10 0 5 0;
#X connect 11 0 1 1;
#X connect 13 0 12 0;
#X connect 14 0 22 0;
#X connect 14 0 15 0;
#X connect 15 0 16 0;
#X connect 16 0 17 0;
#X connect 17 0 18 0;
#X connect 18 0 24 0;
#X connect 19 0 25 0;
#X connect 20 0 18 1;
#X connect 21 0 13 0;
#X connect 22 0 0 0;
#X connect 23 0 1 0;
#X connect 24 0 21 1;
#X connect 25 0 20 0;
#X restore 79 247 pd 808LowTom;
#N canvas 0 25 450 300 808HighTom 0;
#X obj 141 113 line~;
#X obj 189 180 +~;
#X obj 239 137 sqrt~;
#X obj 189 204 -~ 0.25;
#X obj 189 228 cos~;
#X obj 141 295 *~;
#X obj 141 157 *~ -1;
#X obj 141 181 +~ 1;
#X obj 189 252 *~ 2;
#X obj 189 276 expr~ tanh($v1);
#X obj 141 205 *~;
#X obj 239 161 *~ 30;
#X obj 141 343 outlet~;
#X obj 141 319 *~ 0.5;
#X obj 140 63 inlet;
#X msg 300 87 1 \, 0 100;
#X obj 300 111 line~;
#X obj 300 134 pow~ 4;
#X obj 300 157 *~;
#X obj 376 94 noise~;
#X obj 376 140 bp~ 5000 2;
#X obj 240 311 +~;
#X obj 311 223 *~ 0.1;
#X obj 376 117 hip~ 3500;
#X obj 189 156 *~ 69;
#X msg 140 89 0 \, 1 386;
#X connect 0 0 2 0;
#X connect 0 0 6 0;
#X connect 0 0 24 0;
#X connect 1 0 3 0;
#X connect 2 0 11 0;
#X connect 3 0 4 0;
#X connect 4 0 8 0;
#X connect 5 0 21 0;
#X connect 6 0 7 0;
#X connect 7 0 10 0;
#X connect 7 0 10 1;
#X connect 8 0 9 0;
#X connect 9 0 5 1;
#X connect 10 0 5 0;
#X connect 11 0 1 1;
#X connect 13 0 12 0;
#X connect 14 0 25 0;
#X connect 14 0 15 0;
#X connect 15 0 16 0;
#X connect 16 0 17 0;
#X connect 17 0 18 0;
#X connect 18 0 22 0;
#X connect 19 0 23 0;
#X connect 20 0 18 1;
#X connect 21 0 13 0;
#X connect 22 0 21 1;
#X connect 23 0 20 0;
#X connect 24 0 1 0;
#X connect 25 0 0 0;
#X restore 162 271 pd 808HighTom;
#N canvas 0 25 450 300 808Cowbell 0;
#X obj 38 100 -~ 0.5;
#X obj 148 180 *~;
#X obj 150 101 -~ 0.5;
#X obj 150 124 bp~ 830 0.4;
#X msg 256 78 1 4 \, 0 250 4;
#X obj 256 101 vline~;
#X obj 256 124 pow~ 6;
#X obj 363 99 vline~;
#X msg 363 76 0.5 4 \, 0 600 4;
#X obj 363 122 pow~ 3;
#X obj 148 203 *~ 0.5;
#X obj 306 21 inlet;
#X obj 38 77 phasor~ 550;
#X obj 150 78 phasor~ 830;
#X obj 148 231 outlet~;
#X connect 0 0 1 0;
#X connect 1 0 10 0;
#X connect 2 0 3 0;
#X connect 3 0 1 0;
#X connect 4 0 5 0;
#X connect 5 0 6 0;
#X connect 6 0 1 1;
#X connect 7 0 9 0;
#X connect 8 0 7 0;
#X connect 9 0 1 1;
#X connect 10 0 14 0;
#X connect 11 0 4 0;
#X connect 11 0 8 0;
#X connect 12 0 0 0;
#X connect 13 0 2 0;
#X restore 100 318 pd 808Cowbell;
#N canvas 930 525 450 300 808Clap 0;
#X obj 110 76 noise~;
#X obj 110 145 *~;
#N canvas 593 336 578 300 multi_envelope 0;
#X obj 37 7 inlet;
#X obj 37 210 *~ 1;
#N canvas 545 459 768 300 env 0;
#X obj 280 83 inlet;
#X msg 280 129 1 0.2 \, 0 \$1 0.2;
#X obj 280 152 vline~;
#X obj 280 175 *~;
#X obj 280 198 *~;
#X obj 280 221 outlet~;
#X obj 280 106 f 10;
#X connect 0 0 6 0;
#X connect 1 0 2 0;
#X connect 2 0 3 0;
#X connect 2 0 3 1;
#X connect 3 0 4 0;
#X connect 3 0 4 1;
#X connect 4 0 5 0;
#X connect 6 0 1 0;
#X restore 54 136 pd env;
#X obj 37 233 outlet~;
#X obj 82 44 del 10;
#X obj 139 73 del 10;
#X obj 212 102 del 10;
#N canvas 545 459 768 300 env 0;
#X obj 280 83 inlet;
#X msg 280 129 1 0.2 \, 0 \$1 0.2;
#X obj 280 152 vline~;
#X obj 280 175 *~;
#X obj 280 198 *~;
#X obj 280 221 outlet~;
#X obj 280 106 f 10;
#X connect 0 0 6 0;
#X connect 1 0 2 0;
#X connect 2 0 3 0;
#X connect 2 0 3 1;
#X connect 3 0 4 0;
#X connect 3 0 4 1;
#X connect 4 0 5 0;
#X connect 6 0 1 0;
#X restore 114 136 pd env;
#N canvas 545 459 768 300 env 0;
#X obj 280 83 inlet;
#X msg 280 129 1 0.2 \, 0 \$1 0.2;
#X obj 280 152 vline~;
#X obj 280 175 *~;
#X obj 280 198 *~;
#X obj 280 221 outlet~;
#X obj 280 106 f 10;
#X connect 0 0 6 0;
#X connect 1 0 2 0;
#X connect 2 0 3 0;
#X connect 2 0 3 1;
#X connect 3 0 4 0;
#X connect 3 0 4 1;
#X connect 4 0 5 0;
#X connect 6 0 1 0;
#X restore 174 136 pd env;
#N canvas 563 455 768 300 envLast 0;
#X obj 280 83 inlet;
#X msg 280 129 1 0.2 \, 0 \$1 0.2;
#X obj 280 152 vline~;
#X obj 280 175 *~;
#X obj 280 198 *~;
#X obj 280 221 outlet~;
#X obj 280 106 f 125;
#X connect 0 0 6 0;
#X connect 1 0 2 0;
#X connect 2 0 3 0;
#X connect 2 0 3 1;
#X connect 3 0 4 0;
#X connect 3 0 4 1;
#X connect 4 0 5 0;
#X connect 6 0 1 0;
#X restore 234 136 pd envLast;
#X connect 0 0 2 0;
#X connect 0 0 4 0;
#X connect 1 0 3 0;
#X connect 2 0 1 0;
#X connect 4 0 5 0;
#X connect 4 0 7 0;
#X connect 5 0 6 0;
#X connect 5 0 8 0;
#X connect 6 0 9 0;
#X connect 7 0 1 0;
#X connect 8 0 1 0;
#X connect 9 0 1 0;
#X restore 243 208 pd multi_envelope;
#X obj 243 167 inlet;
#X obj 74 226 outlet~;
#X obj 74 198 *~ 1;
#X obj 110 99 hip~ 800;
#X obj 110 122 lop~ 1200;
#X connect 0 0 6 0;
#X connect 1 0 5 0;
#X connect 2 0 1 1;
#X connect 3 0 2 0;
#X connect 5 0 4 0;
#X connect 6 0 7 0;
#X connect 7 0 1 0;
#X restore 283 342 pd 808Clap;
#X connect 0 0 2 0;
#X connect 2 0 11 0;
#X connect 2 1 12 0;
#X connect 2 2 13 0;
#X connect 2 3 14 0;
#X connect 2 4 15 0;
#X connect 2 5 16 0;
#X connect 2 6 17 0;
#X connect 2 7 18 0;
#X connect 11 0 3 0;
#X connect 12 0 4 0;
#X connect 13 0 5 0;
#X connect 14 0 6 0;
#X connect 15 0 7 0;
#X connect 16 0 8 0;
#X connect 17 0 9 0;
#X connect 18 0 10 0;
#X restore 367 335 pd 808;
#X obj 367 301 spigot;
#X obj 420 302 tgl 15 0 empty empty empty 17 7 0 10 -257985 -1 -1 1
1;
#X obj 406 269 == 3;
#X text 12 0 Drum hits are triggerd by pressing keys 1-8;
#X text 19 128 Menu Mode;
#X obj 89 161 s menu;
#X obj 268 98 r menu;
#X obj 51 221 r menu;
#X connect 0 0 1 0;
#X connect 1 0 3 0;
#X connect 2 0 8 0;
#X connect 2 1 5 0;
#X connect 4 0 2 0;
#X connect 5 0 9 0;
#X connect 6 0 7 0;
#X connect 6 0 7 1;
#X connect 8 0 34 0;
#X connect 9 0 10 0;
#X connect 10 0 11 0;
#X connect 13 0 17 0;
#X connect 13 0 19 0;
#X connect 13 0 29 0;
#X connect 15 0 17 1;
#X connect 15 0 18 0;
#X connect 16 0 15 0;
#X connect 16 0 21 0;
#X connect 16 0 31 0;
#X connect 17 0 14 0;
#X connect 19 0 22 0;
#X connect 21 0 19 1;
#X connect 21 0 20 0;
#X connect 29 0 28 0;
#X connect 31 0 29 1;
#X connect 31 0 30 0;
#X connect 35 0 9 1;
#X connect 36 0 23 0;
