#N canvas 1071 309 714 618 12;
#X obj 14 22 key;
#X floatatom 14 47 5 0 0 0 - - - 0;
#X obj 163 48 sel 32;
#X obj 14 71 s key;
#X obj 163 25 r key;
#X floatatom 202 72 5 0 0 0 - - - 0;
#X obj 603 529 catch~ bus;
#X obj 603 558 dac~;
#X obj 163 73 tgl 15 0 empty empty empty 17 7 0 10 #fcfcfc #000000
#000000 0 1;
#X obj 163 104 pack f f;
#X obj 163 130 expr if ($f2 == 1 \, 0 \, $f1);
#X obj 163 153 s drum-trig;
#X text 244 73 Key note in;
#X obj 382 24 r drum-trig;
#N canvas 0 25 450 462 (subpatch) 0;
#X obj 37 37 inlet;
#X text 86 36 note in;
#X obj 37 71 sel 49 50 51 52 53 54 55 56;
#X obj 37 107 sample 707/Kick.wav;
#X obj 37 128 throw~ bus;
#X obj 120 152 throw~ bus;
#X obj 120 131 sample 707/Snare.wav;
#X obj 58 199 throw~ bus;
#X obj 141 223 throw~ bus;
#X obj 58 178 sample 707/CHat.wav;
#X obj 141 202 sample 707/OHat.wav;
#X obj 79 268 throw~ bus;
#X obj 162 292 throw~ bus;
#X obj 100 339 throw~ bus;
#X obj 79 247 sample 707/Rim.wav;
#X obj 162 271 sample 707/Tom1.wav;
#X obj 100 318 sample 707/Tom2.wav;
#X obj 183 342 sample 707/Clap.wav;
#X obj 183 364 throw~ bus;
#X connect 0 0 2 0;
#X connect 2 0 3 0;
#X connect 2 1 6 0;
#X connect 2 2 9 0;
#X connect 2 3 10 0;
#X connect 2 4 14 0;
#X connect 2 5 15 0;
#X connect 2 6 16 0;
#X connect 2 7 17 0;
#X connect 3 0 4 0;
#X connect 6 0 5 0;
#X connect 9 0 7 0;
#X connect 10 0 8 0;
#X connect 14 0 11 0;
#X connect 15 0 12 0;
#X connect 16 0 13 0;
#X connect 17 0 18 0;
#X restore 387 155 pd 707;
#X obj 426 89 == 1;
#X obj 474 24 r patch;
#X obj 387 121 spigot;
#X obj 440 122 tgl 15 0 empty empty empty 17 7 0 10 #fcfcfc #000000
#000000 0 1;
#X obj 472 121 spigot;
#X obj 525 122 tgl 15 0 empty empty empty 17 7 0 10 #fcfcfc #000000
#000000 0 1;
#X obj 511 89 == 2;
#N canvas 947 208 450 462 (subpatch) 0;
#X obj 37 37 inlet;
#X text 86 36 note in;
#X obj 37 71 sel 49 50 51 52 53 54 55 56;
#X obj 37 128 throw~ bus;
#X obj 120 152 throw~ bus;
#X obj 58 199 throw~ bus;
#X obj 141 223 throw~ bus;
#X obj 79 268 throw~ bus;
#X obj 162 292 throw~ bus;
#X obj 100 339 throw~ bus;
#X obj 37 107 sample 505/Kick.wav;
#X obj 120 131 sample 505/Snare.wav;
#X obj 58 178 sample 505/CHat.wav;
#X obj 141 202 sample 505/OHat.wav;
#X obj 79 247 sample 505/LowTom.wav;
#X obj 162 271 sample 505/LowConga.wav;
#X obj 100 318 sample 505/HiConga.wav;
#X obj 183 342 sample 505/HiCowbell.wav;
#X obj 183 365 throw~ bus;
#X connect 0 0 2 0;
#X connect 2 0 10 0;
#X connect 2 1 11 0;
#X connect 2 2 12 0;
#X connect 2 3 13 0;
#X connect 2 4 14 0;
#X connect 2 5 15 0;
#X connect 2 6 16 0;
#X connect 2 7 17 0;
#X connect 10 0 3 0;
#X connect 11 0 4 0;
#X connect 12 0 5 0;
#X connect 13 0 6 0;
#X connect 14 0 7 0;
#X connect 15 0 8 0;
#X connect 16 0 9 0;
#X connect 17 0 18 0;
#X restore 472 155 pd 505;
#N canvas 52 52 446 300 menu 0;
#X obj 157 308 spigot;
#X obj 98 226 sel 49 50 51 52 53 54 55 56;
#X msg 109 277 1;
#X msg 147 277 2;
#X obj 98 199 r key;
#X obj 157 337 s patch;
#X obj 232 276 inlet;
#X obj 25 199 loadbang;
#X connect 0 0 5 0;
#X connect 1 0 2 0;
#X connect 1 1 3 0;
#X connect 2 0 0 0;
#X connect 3 0 0 0;
#X connect 4 0 1 0;
#X connect 6 0 0 1;
#X connect 7 0 2 0;
#X restore 81 154 pd menu;
#X text 50 176 Main and sub-menu;
#X text 49 191 for controlling;
#X text 50 206 spiemachine features;
#X text 79 68 Menu Toggle;
#X text 78 83 (Spacebar);
#X connect 0 0 1 0;
#X connect 1 0 3 0;
#X connect 2 0 8 0;
#X connect 2 1 5 0;
#X connect 4 0 2 0;
#X connect 5 0 9 0;
#X connect 6 0 7 0;
#X connect 6 0 7 1;
#X connect 8 0 9 1;
#X connect 8 0 23 0;
#X connect 9 0 10 0;
#X connect 10 0 11 0;
#X connect 13 0 17 0;
#X connect 13 0 19 0;
#X connect 15 0 17 1;
#X connect 15 0 18 0;
#X connect 16 0 15 0;
#X connect 16 0 21 0;
#X connect 17 0 14 0;
#X connect 19 0 22 0;
#X connect 21 0 19 1;
#X connect 21 0 20 0;
