#N canvas 373 248 636 457 12;
#X obj 30 59 inlet;
#X obj 30 160 outlet~;
#X obj 30 84 symbol \$1;
#N canvas 0 25 450 300 backup 0;
#N canvas 0 22 450 278 (subpatch) 0;
#X array \$0-audioData 43632 float 2;
#X coords 0 1 43632 -1 200 140 1 0 0;
#X restore 341 27 graph;
#X floatatom 31 195 10 0 0 0 - - -;
#X obj 32 323 vline~;
#X obj 30 11 inlet;
#X obj 104 12 inlet;
#X obj 30 35 s \$0-bang;
#X obj 104 35 s \$0-volume;
#X obj 32 222 r \$0-bang;
#X obj 87 373 r \$0-volume;
#X obj 32 400 outlet~;
#X obj 30 59 loadbang;
#X obj 31 349 tabread4~ \$0-audioData;
#X obj 31 171 soundfiler;
#X obj 30 84 symbol \$1;
#X obj 30 116 pack s \$0;
#X msg 30 147 read -resize \$1 \$2-audioData;
#X obj 32 373 *~ 0.5;
#X msg 96 398 0.5;
#X obj 184 408 loadbang;
#X msg 32 297 \$1 \, \$2 \$3;
#X obj 31 272 pack 0 f f;
#X connect 1 0 20 1;
#X connect 1 0 20 2;
#X connect 2 0 11 0;
#X connect 3 0 5 0;
#X connect 4 0 6 0;
#X connect 7 0 20 0;
#X connect 8 0 16 1;
#X connect 10 0 13 0;
#X connect 11 0 16 0;
#X connect 12 0 1 0;
#X connect 13 0 14 0;
#X connect 14 0 15 0;
#X connect 15 0 12 0;
#X connect 16 0 9 0;
#X connect 17 0 16 1;
#X connect 18 0 17 0;
#X connect 19 0 2 0;
#X connect 20 0 19 0;
#X restore 375 326 pd backup;
#X msg 30 110 open \$1 \, 1;
#X obj 30 133 readsf~;
#X connect 0 0 2 0;
#X connect 2 0 4 0;
#X connect 4 0 5 0;
#X connect 5 0 1 0;
